<?xml version="1.0" encoding="utf-8"?>
<!-- Generator: Adobe Illustrator 26.0.0, SVG Export Plug-In . SVG Version: 6.00 Build 0)  -->
<svg version="1.1" xmlns="http://www.w3.org/2000/svg" xmlns:xlink="http://www.w3.org/1999/xlink" x="0px" y="0px"
	 viewBox="0 0 164.02 41.84" style="enable-background:new 0 0 164.02 41.84;" xml:space="preserve">
<style type="text/css">
	.st0{fill:#232C30;}
	.st1{fill:#1A467F;}
	.st2{fill:none;}
	.st3{fill:#A20E0A;}
</style>
<g id="Layer_1">
	<g>
		<g>
			<path class="st0" d="M47.46,35c0,1.12-0.8,1.76-2.4,1.76h-2.94v-6.6h2.76c1.42,0,2.25,0.62,2.25,1.7c0,0.75-0.39,1.25-0.98,1.5
				C46.97,33.55,47.46,34.11,47.46,35z M42.8,30.74v2.39h2.03c1.02,0,1.62-0.41,1.62-1.2s-0.59-1.2-1.62-1.2H42.8z M46.78,34.95
				c0-0.86-0.61-1.23-1.73-1.23H42.8v2.48h2.25C46.17,36.19,46.78,35.81,46.78,34.95z"/>
			<path class="st0" d="M53.2,31.81v4.96h-0.62v-0.91c-0.34,0.6-0.96,0.95-1.72,0.95c-1.22,0-2.03-0.71-2.03-2.13v-2.88h0.65v2.81
				c0,1.06,0.53,1.59,1.44,1.59c1,0,1.63-0.67,1.63-1.8v-2.6H53.2z"/>
			<path class="st0" d="M54.35,36.2l0.29-0.53c0.38,0.31,1.03,0.56,1.71,0.56c0.91,0,1.29-0.32,1.29-0.81
				c0-1.29-3.11-0.27-3.11-2.23c0-0.81,0.68-1.41,1.9-1.41c0.62,0,1.3,0.18,1.7,0.46l-0.28,0.54c-0.42-0.3-0.92-0.42-1.41-0.42
				c-0.87,0-1.25,0.35-1.25,0.82c0,1.34,3.11,0.33,3.11,2.23c0,0.86-0.73,1.41-1.98,1.41C55.51,36.81,54.74,36.55,54.35,36.2z"/>
			<path class="st0" d="M59.34,30.24c0-0.25,0.21-0.47,0.48-0.47c0.27,0,0.47,0.21,0.47,0.46c0,0.27-0.2,0.49-0.47,0.49
				C59.55,30.72,59.34,30.51,59.34,30.24z M59.48,31.81h0.65v4.96h-0.65V31.81z"/>
			<path class="st0" d="M66.36,33.89v2.88h-0.65v-2.81c0-1.05-0.53-1.58-1.44-1.58c-1.03,0-1.68,0.66-1.68,1.79v2.6h-0.65v-4.96
				h0.62v0.91c0.35-0.6,1-0.95,1.83-0.95C65.55,31.77,66.36,32.47,66.36,33.89z"/>
			<path class="st0" d="M72.3,34.49h-4.02c0.07,1.04,0.84,1.73,1.89,1.73c0.58,0,1.11-0.22,1.47-0.65L72.01,36
				c-0.43,0.53-1.1,0.81-1.85,0.81c-1.5,0-2.52-1.06-2.52-2.53c0-1.47,0.99-2.52,2.35-2.52c1.35,0,2.33,1.03,2.33,2.52
				C72.31,34.34,72.3,34.42,72.3,34.49z M68.29,33.99h3.4c-0.08-0.97-0.77-1.65-1.71-1.65C69.05,32.34,68.37,33.02,68.29,33.99z"/>
			<path class="st0" d="M72.97,36.2l0.29-0.53c0.38,0.31,1.03,0.56,1.71,0.56c0.91,0,1.29-0.32,1.29-0.81
				c0-1.29-3.11-0.27-3.11-2.23c0-0.81,0.68-1.41,1.9-1.41c0.62,0,1.3,0.18,1.7,0.46l-0.28,0.54c-0.42-0.3-0.92-0.42-1.41-0.42
				c-0.87,0-1.25,0.35-1.25,0.82c0,1.34,3.11,0.33,3.11,2.23c0,0.86-0.73,1.41-1.98,1.41C74.13,36.81,73.37,36.55,72.97,36.2z"/>
			<path class="st0" d="M77.44,36.2l0.29-0.53c0.38,0.31,1.03,0.56,1.71,0.56c0.91,0,1.29-0.32,1.29-0.81
				c0-1.29-3.11-0.27-3.11-2.23c0-0.81,0.68-1.41,1.9-1.41c0.62,0,1.3,0.18,1.7,0.46l-0.28,0.54c-0.42-0.3-0.92-0.42-1.41-0.42
				c-0.87,0-1.25,0.35-1.25,0.82c0,1.34,3.11,0.33,3.11,2.23c0,0.86-0.73,1.41-1.98,1.41C78.6,36.81,77.83,36.55,77.44,36.2z"/>
			<path class="st0" d="M84.49,35.97l0.27-0.54c0.46,0.46,1.27,0.8,2.11,0.8c1.2,0,1.72-0.52,1.72-1.17c0-1.81-3.93-0.7-3.93-3.14
				c0-0.97,0.73-1.81,2.35-1.81c0.72,0,1.47,0.22,1.98,0.58l-0.23,0.56c-0.55-0.37-1.19-0.55-1.75-0.55c-1.17,0-1.69,0.54-1.69,1.2
				c0,1.81,3.93,0.72,3.93,3.12c0,0.97-0.75,1.8-2.38,1.8C85.91,36.82,84.97,36.47,84.49,35.97z"/>
			<path class="st0" d="M90.1,34.29c0-1.47,1.04-2.52,2.45-2.52c1.41,0,2.44,1.05,2.44,2.52c0,1.47-1.03,2.53-2.44,2.53
				C91.14,36.81,90.1,35.76,90.1,34.29z M94.33,34.29c0-1.16-0.76-1.93-1.78-1.93c-1.02,0-1.79,0.77-1.79,1.93
				c0,1.16,0.77,1.93,1.79,1.93C93.57,36.22,94.33,35.45,94.33,34.29z"/>
			<path class="st0" d="M96.31,29.77h0.65v7h-0.65V29.77z"/>
			<path class="st0" d="M103.09,31.81v4.96h-0.62v-0.91c-0.34,0.6-0.96,0.95-1.73,0.95c-1.22,0-2.03-0.71-2.03-2.13v-2.88h0.65v2.81
				c0,1.06,0.53,1.59,1.44,1.59c1,0,1.63-0.67,1.63-1.8v-2.6H103.09z"/>
			<path class="st0" d="M107.44,36.47c-0.26,0.24-0.64,0.35-1.01,0.35c-0.9,0-1.41-0.53-1.41-1.44v-3h-0.86v-0.57h0.86v-1.08h0.65
				v1.08h1.46v0.57h-1.46v2.96c0,0.58,0.29,0.91,0.83,0.91c0.27,0,0.53-0.09,0.71-0.25L107.44,36.47z"/>
			<path class="st0" d="M108.48,30.24c0-0.25,0.21-0.47,0.48-0.47c0.26,0,0.47,0.21,0.47,0.46c0,0.27-0.2,0.49-0.47,0.49
				C108.69,30.72,108.48,30.51,108.48,30.24z M108.62,31.81h0.65v4.96h-0.65V31.81z"/>
			<path class="st0" d="M110.59,34.29c0-1.47,1.04-2.52,2.45-2.52c1.41,0,2.44,1.05,2.44,2.52c0,1.47-1.03,2.53-2.44,2.53
				C111.64,36.81,110.59,35.76,110.59,34.29z M114.82,34.29c0-1.16-0.76-1.93-1.78-1.93c-1.02,0-1.79,0.77-1.79,1.93
				c0,1.16,0.77,1.93,1.79,1.93C114.06,36.22,114.82,35.45,114.82,34.29z"/>
			<path class="st0" d="M121.22,33.89v2.88h-0.65v-2.81c0-1.05-0.53-1.58-1.44-1.58c-1.03,0-1.68,0.66-1.68,1.79v2.6h-0.65v-4.96
				h0.62v0.91c0.35-0.6,1-0.95,1.83-0.95C120.42,31.77,121.22,32.47,121.22,33.89z"/>
			<path class="st0" d="M122.32,36.2l0.29-0.53c0.38,0.31,1.03,0.56,1.71,0.56c0.91,0,1.29-0.32,1.29-0.81
				c0-1.29-3.11-0.27-3.11-2.23c0-0.81,0.68-1.41,1.9-1.41c0.62,0,1.3,0.18,1.7,0.46l-0.28,0.54c-0.42-0.3-0.92-0.42-1.41-0.42
				c-0.87,0-1.25,0.35-1.25,0.82c0,1.34,3.11,0.33,3.11,2.23c0,0.86-0.73,1.41-1.98,1.41C123.48,36.81,122.72,36.55,122.32,36.2z"/>
			<path class="st0" d="M134.99,32.43c0,1.4-0.99,2.25-2.61,2.25h-1.72v2.08h-0.68v-6.6h2.39C134,30.17,134.99,31.02,134.99,32.43z
				 M134.31,32.43c0-1.06-0.68-1.66-1.95-1.66h-1.7v3.3h1.7C133.64,34.07,134.31,33.47,134.31,32.43z"/>
			<path class="st0" d="M140.37,31.81l-2.14,4.96h-0.67l-2.13-4.96h0.68l1.8,4.22l1.82-4.22H140.37z"/>
			<path class="st0" d="M143.95,36.47c-0.26,0.24-0.64,0.35-1.01,0.35c-0.9,0-1.41-0.53-1.41-1.44v-3h-0.86v-0.57h0.86v-1.08h0.65
				v1.08h1.46v0.57h-1.46v2.96c0,0.58,0.29,0.91,0.83,0.91c0.27,0,0.53-0.09,0.71-0.25L143.95,36.47z"/>
			<path class="st0" d="M144.8,36.3c0-0.29,0.22-0.51,0.48-0.51c0.27,0,0.49,0.22,0.49,0.51c0,0.29-0.23,0.52-0.49,0.52
				C145.02,36.81,144.8,36.59,144.8,36.3z"/>
			<path class="st0" d="M147.29,30.17h0.68v6h3.58v0.6h-4.25V30.17z"/>
			<path class="st0" d="M155.02,36.47c-0.26,0.24-0.64,0.35-1.01,0.35c-0.9,0-1.41-0.53-1.41-1.44v-3h-0.86v-0.57h0.86v-1.08h0.65
				v1.08h1.46v0.57h-1.46v2.96c0,0.58,0.29,0.91,0.83,0.91c0.27,0,0.53-0.09,0.71-0.25L155.02,36.47z"/>
			<path class="st0" d="M160.41,29.77v7h-0.62v-0.98c-0.39,0.67-1.06,1.03-1.85,1.03c-1.37,0-2.39-1.03-2.39-2.53
				c0-1.5,1.02-2.52,2.39-2.52c0.77,0,1.42,0.34,1.82,0.98v-2.98H160.41z M159.77,34.29c0-1.16-0.77-1.93-1.78-1.93
				c-1.02,0-1.79,0.77-1.79,1.93c0,1.16,0.77,1.93,1.79,1.93C159,36.22,159.77,35.45,159.77,34.29z"/>
		</g>
	</g>
	<g>
		<g>
			<path class="st1" d="M55.58,21.33l-0.04-0.04c0.23,0.33,0.28,0.65,0.13,0.94c-0.14,0.3-0.35,0.51-0.64,0.64
				c-0.54,0.23-1.14,0.45-1.81,0.66c-0.67,0.21-1.46,0.31-2.39,0.31c-1.13,0-2.22-0.24-3.28-0.73c-1.05-0.49-1.99-1.16-2.8-2
				c-0.81-0.85-1.45-1.84-1.93-2.97c-0.48-1.13-0.71-2.35-0.71-3.66c0-1.29,0.24-2.49,0.71-3.62c0.47-1.13,1.12-2.11,1.93-2.95
				c0.81-0.84,1.74-1.5,2.8-1.99c1.05-0.49,2.15-0.73,3.28-0.73c1.39,0,2.81,0.33,4.28,1c0.18,0.13,0.34,0.27,0.48,0.42
				c0.14,0.15,0.14,0.48-0.02,0.96l-1.31,2.35c-0.21,0.28-0.45,0.48-0.73,0.6c-0.28,0.12-0.57,0.07-0.85-0.14l0.04,0.04
				c-0.28-0.1-0.58-0.18-0.89-0.23c-0.31-0.05-0.64-0.08-1-0.08c-0.54,0-1.05,0.12-1.52,0.35c-0.48,0.23-0.89,0.55-1.23,0.94
				c-0.35,0.4-0.62,0.86-0.83,1.39c-0.21,0.53-0.31,1.1-0.31,1.72c0,0.62,0.1,1.19,0.31,1.73c0.21,0.54,0.48,1,0.83,1.39
				c0.35,0.39,0.76,0.69,1.23,0.93c0.48,0.23,0.98,0.35,1.52,0.35c0.67,0,1.3-0.12,1.89-0.35l-0.04,0.04
				c0.28-0.18,0.56-0.21,0.85-0.1c0.28,0.12,0.53,0.32,0.73,0.6L55.58,21.33z"/>
			<path class="st1" d="M70.96,21.33l-0.04-0.04c0.23,0.33,0.28,0.65,0.13,0.94c-0.14,0.3-0.35,0.51-0.64,0.64
				c-0.54,0.23-1.14,0.45-1.81,0.66c-0.67,0.21-1.46,0.31-2.39,0.31c-1.13,0-2.22-0.24-3.28-0.73c-1.05-0.49-1.99-1.16-2.79-2
				c-0.81-0.85-1.45-1.84-1.93-2.97c-0.48-1.13-0.71-2.35-0.71-3.66c0-1.29,0.24-2.49,0.71-3.62c0.47-1.13,1.12-2.11,1.93-2.95
				c0.81-0.84,1.74-1.5,2.79-1.99c1.05-0.49,2.15-0.73,3.28-0.73c1.39,0,2.81,0.33,4.28,1c0.18,0.13,0.34,0.27,0.48,0.42
				c0.14,0.15,0.14,0.48-0.02,0.96l-1.31,2.35c-0.21,0.28-0.45,0.48-0.73,0.6c-0.28,0.12-0.57,0.07-0.85-0.14l0.04,0.04
				c-0.28-0.1-0.58-0.18-0.89-0.23c-0.31-0.05-0.64-0.08-1-0.08c-0.54,0-1.05,0.12-1.52,0.35c-0.48,0.23-0.89,0.55-1.23,0.94
				c-0.35,0.4-0.62,0.86-0.83,1.39c-0.21,0.53-0.31,1.1-0.31,1.72c0,0.62,0.1,1.19,0.31,1.73c0.21,0.54,0.48,1,0.83,1.39
				c0.35,0.39,0.76,0.69,1.23,0.93c0.48,0.23,0.98,0.35,1.52,0.35c0.67,0,1.3-0.12,1.89-0.35l-0.04,0.04
				c0.28-0.18,0.56-0.21,0.85-0.1c0.28,0.12,0.53,0.32,0.73,0.6L70.96,21.33z"/>
			<path class="st1" d="M81.6,5.3c1.23,0,2.4,0.22,3.51,0.66c1.11,0.44,2.07,1.09,2.89,1.97c0.82,0.87,1.46,1.95,1.93,3.22
				c0.46,1.27,0.67,2.76,0.62,4.45c0,0.67-0.32,1.02-0.96,1.04c-0.93,0.03-1.92,0.04-2.99,0.04c-1.07,0-2,0-2.79,0l-6.13,0.04
				c0.21,0.44,0.64,0.96,1.29,1.56c0.66,0.6,1.57,1.01,2.76,1.21c0.15,0.03,0.33,0.05,0.54,0.06c0.21,0.01,0.37,0.02,0.5,0.02
				c1.08,0,1.96-0.2,2.64-0.6c0.68-0.4,1.2-0.8,1.56-1.21c0.26-0.21,0.54-0.23,0.85-0.08l2,1.73c0.18,0.15,0.27,0.33,0.27,0.54
				c0,0.26-0.05,0.41-0.15,0.46h0.04c-0.21,0.23-0.53,0.55-0.96,0.96c-0.44,0.41-0.99,0.81-1.66,1.2c-0.67,0.39-1.47,0.71-2.41,0.98
				c-0.94,0.27-2.02,0.39-3.26,0.37c-1.23-0.03-2.41-0.29-3.53-0.79c-1.12-0.5-2.09-1.17-2.91-2c-0.82-0.84-1.48-1.81-1.97-2.93
				c-0.49-1.12-0.73-2.32-0.73-3.6c0-1.29,0.24-2.49,0.71-3.62c0.48-1.13,1.12-2.11,1.95-2.95c0.82-0.83,1.79-1.5,2.89-1.99
				C79.19,5.54,80.36,5.3,81.6,5.3z M77.43,12.31h0.39c-0.05,0.1-0.08,0.18-0.08,0.23v-0.08L77.43,12.31z M81.67,9.61
				c-0.64,0-1.19,0.1-1.64,0.31c-0.45,0.21-0.83,0.45-1.14,0.73c-0.31,0.28-0.55,0.58-0.71,0.89c-0.17,0.31-0.29,0.57-0.37,0.77
				h7.94c-0.13-0.28-0.29-0.58-0.5-0.89c-0.21-0.31-0.48-0.6-0.81-0.87c-0.33-0.27-0.73-0.49-1.18-0.67
				C82.82,9.7,82.29,9.61,81.67,9.61z M85.99,12.31c-0.1,0.05-0.15,0.12-0.15,0.19c-0.03-0.03-0.04-0.05-0.04-0.08
				c0-0.03-0.01-0.06-0.04-0.12H85.99z M85.88,12.58c-0.03,0-0.04-0.03-0.04-0.08v0.15L85.88,12.58z M85.95,12.39
				c-0.05,0.05-0.08,0.1-0.08,0.15v0.04L85.95,12.39z M85.92,12.7c-0.03-0.03-0.04-0.06-0.04-0.12L85.92,12.7z"/>
			<path class="st1" d="M106.39,21.33l-0.04-0.04c0.23,0.33,0.28,0.65,0.13,0.94c-0.14,0.3-0.35,0.51-0.64,0.64
				c-0.54,0.23-1.14,0.45-1.81,0.66c-0.67,0.21-1.46,0.31-2.39,0.31c-1.13,0-2.22-0.24-3.28-0.73c-1.05-0.49-1.99-1.16-2.79-2
				c-0.81-0.85-1.45-1.84-1.93-2.97c-0.48-1.13-0.71-2.35-0.71-3.66c0-1.29,0.24-2.49,0.71-3.62c0.47-1.13,1.12-2.11,1.93-2.95
				c0.81-0.84,1.74-1.5,2.79-1.99c1.05-0.49,2.15-0.73,3.28-0.73c1.39,0,2.81,0.33,4.28,1c0.18,0.13,0.34,0.27,0.48,0.42
				c0.14,0.15,0.14,0.48-0.02,0.96l-1.31,2.35c-0.21,0.28-0.45,0.48-0.73,0.6c-0.28,0.12-0.57,0.07-0.85-0.14l0.04,0.04
				c-0.28-0.1-0.58-0.18-0.89-0.23c-0.31-0.05-0.64-0.08-1-0.08c-0.54,0-1.05,0.12-1.52,0.35c-0.48,0.23-0.89,0.55-1.23,0.94
				c-0.35,0.4-0.62,0.86-0.83,1.39c-0.21,0.53-0.31,1.1-0.31,1.72c0,0.62,0.1,1.19,0.31,1.73c0.2,0.54,0.48,1,0.83,1.39
				c0.35,0.39,0.76,0.69,1.23,0.93c0.48,0.23,0.98,0.35,1.52,0.35c0.67,0,1.3-0.12,1.89-0.35l-0.04,0.04
				c0.28-0.18,0.56-0.21,0.85-0.1c0.28,0.12,0.53,0.32,0.73,0.6L106.39,21.33z"/>
			<path class="st1" d="M124.43,8.73c0.62,0.82,1.11,1.73,1.48,2.72c0.37,0.99,0.56,2.02,0.56,3.1c0,1.29-0.24,2.49-0.73,3.62
				c-0.49,1.13-1.16,2.11-2,2.95c-0.85,0.84-1.84,1.5-2.99,1.99c-1.14,0.49-2.37,0.73-3.68,0.73c-1.13,0-2.22-0.24-3.28-0.73
				c-1.05-0.49-1.99-1.15-2.8-1.99c-0.81-0.84-1.45-1.82-1.93-2.95c-0.48-1.13-0.71-2.34-0.71-3.62c0-1.36,0.24-2.62,0.73-3.76
				c0.49-1.14,1.14-2.13,1.97-2.95c0.82-0.82,1.77-1.46,2.85-1.91c1.08-0.45,2.21-0.67,3.39-0.67c1.49,0,2.93,0.37,4.32,1.12h-0.04
				c0.28,0.1,0.44,0.24,0.48,0.42c0.04,0.18,0.01,0.37-0.1,0.58c-0.23,0.44-0.44,0.8-0.64,1.1c-0.19,0.3-0.39,0.66-0.6,1.1
				c-0.26,0.36-0.55,0.64-0.89,0.83c-0.33,0.19-0.64,0.19-0.93-0.02l0.04,0.04c-0.28-0.1-0.58-0.18-0.89-0.23
				c-0.31-0.05-0.64-0.08-1-0.08c-0.57,0-1.09,0.12-1.56,0.35c-0.48,0.23-0.89,0.55-1.23,0.94c-0.35,0.4-0.62,0.87-0.81,1.41
				c-0.19,0.54-0.29,1.12-0.29,1.73c0,1.29,0.36,2.34,1.08,3.16c0.72,0.82,1.66,1.23,2.81,1.23c0.64,0,1.24-0.11,1.79-0.33
				c0.55-0.22,1.03-0.52,1.45-0.91c0.41-0.39,0.74-0.85,0.98-1.39c0.24-0.54,0.37-1.13,0.37-1.77c0-0.41-0.06-0.81-0.19-1.2
				c-0.13-0.39-0.28-0.76-0.46-1.12c-0.13-0.28-0.15-0.56-0.08-0.83c0.08-0.27,0.22-0.51,0.42-0.71l2.2-1.97
				c0.28-0.28,0.56-0.3,0.85-0.04L124.43,8.73z"/>
			<path class="st1" d="M130.29,6.3c0-0.28,0.09-0.5,0.27-0.66c0.18-0.15,0.38-0.23,0.62-0.23h1.85c0.51,0,0.81,0.23,0.89,0.69
				l0.08,0.66c0,0.13,0.01,0.22,0.04,0.27c0.38-0.46,0.92-0.91,1.62-1.35c0.69-0.44,1.52-0.66,2.47-0.66c0.36,0,0.75,0.04,1.18,0.12
				c0.42,0.08,0.8,0.19,1.14,0.35c0.33,0.15,0.58,0.34,0.75,0.56c0.17,0.22,0.17,0.48,0.02,0.79l-1.39,2.47
				c-0.23,0.41-0.67,0.5-1.31,0.27v0.04c-0.54-0.18-1.02-0.19-1.45-0.04c-0.42,0.15-0.78,0.4-1.06,0.73
				c-0.28,0.33-0.5,0.73-0.64,1.18c-0.14,0.45-0.21,0.88-0.21,1.29v9.91c0,0.59-0.35,0.89-1.04,0.89h-2.93
				c-0.23,0-0.44-0.1-0.62-0.29c-0.18-0.19-0.27-0.39-0.27-0.6V6.3z"/>
			<path class="st1" d="M151.46,5.3c1.23,0,2.4,0.22,3.51,0.66c1.11,0.44,2.07,1.09,2.89,1.97c0.82,0.87,1.46,1.95,1.93,3.22
				c0.46,1.27,0.67,2.76,0.62,4.45c0,0.67-0.32,1.02-0.96,1.04c-0.93,0.03-1.92,0.04-2.99,0.04c-1.07,0-2,0-2.79,0l-6.13,0.04
				c0.21,0.44,0.64,0.96,1.29,1.56c0.66,0.6,1.57,1.01,2.76,1.21c0.15,0.03,0.33,0.05,0.54,0.06c0.21,0.01,0.37,0.02,0.5,0.02
				c1.08,0,1.96-0.2,2.64-0.6c0.68-0.4,1.2-0.8,1.56-1.21c0.26-0.21,0.54-0.23,0.85-0.08l2,1.73c0.18,0.15,0.27,0.33,0.27,0.54
				c0,0.26-0.05,0.41-0.15,0.46h0.04c-0.21,0.23-0.53,0.55-0.96,0.96c-0.44,0.41-0.99,0.81-1.66,1.2c-0.67,0.39-1.47,0.71-2.41,0.98
				c-0.94,0.27-2.02,0.39-3.26,0.37c-1.23-0.03-2.41-0.29-3.53-0.79c-1.12-0.5-2.09-1.17-2.91-2c-0.82-0.84-1.48-1.81-1.97-2.93
				c-0.49-1.12-0.73-2.32-0.73-3.6c0-1.29,0.24-2.49,0.71-3.62c0.48-1.13,1.12-2.11,1.95-2.95c0.82-0.83,1.79-1.5,2.89-1.99
				C149.05,5.54,150.22,5.3,151.46,5.3z M147.29,12.31h0.39c-0.05,0.1-0.08,0.18-0.08,0.23v-0.08L147.29,12.31z M151.53,9.61
				c-0.64,0-1.19,0.1-1.64,0.31c-0.45,0.21-0.83,0.45-1.14,0.73c-0.31,0.28-0.55,0.58-0.71,0.89c-0.17,0.31-0.29,0.57-0.37,0.77
				h7.94c-0.13-0.28-0.29-0.58-0.5-0.89c-0.21-0.31-0.48-0.6-0.81-0.87c-0.33-0.27-0.73-0.49-1.18-0.67
				C152.68,9.7,152.15,9.61,151.53,9.61z M155.85,12.31c-0.1,0.05-0.15,0.12-0.15,0.19c-0.03-0.03-0.04-0.05-0.04-0.08
				c0-0.03-0.01-0.06-0.04-0.12H155.85z M155.74,12.58c-0.03,0-0.04-0.03-0.04-0.08v0.15L155.74,12.58z M155.81,12.39
				c-0.05,0.05-0.08,0.1-0.08,0.15v0.04L155.81,12.39z M155.77,12.7c-0.03-0.03-0.04-0.06-0.04-0.12L155.77,12.7z"/>
		</g>
	</g>
	<g>
		<path class="st2" d="M21.08,12.27L14.91,25.4c2.87-2.34,6.12-4.56,9.53-6.12l-3.37-7.06V12.27z"/>
		<path class="st1" d="M39.1,36.86l-8.06-18c-1.4,0.91-3.18,2.13-5.11,3.54l6.89,14.46H39.1z"/>
		<path class="st3" d="M33.93,17.04c-1.19-0.02-2.38,0.1-3.57,0.32c-2,0.37-3.99,1.03-5.92,1.92c-3.41,1.56-6.66,3.78-9.53,6.12
			c-6.65,5.41-11.3,11.46-11.3,11.46h5.92h2.62C14,31.95,20.5,26.39,25.93,22.41c1.93-1.41,3.71-2.63,5.11-3.54
			C32.8,17.72,33.93,17.04,33.93,17.04z"/>
		<path class="st1" d="M14.05,25.06c0.53-0.43,1.07-0.86,1.62-1.28l5.4-11.52v-0.05l2.95,6.18c0.56-0.29,1.12-0.56,1.68-0.82
			c1.34-0.61,2.69-1.14,4.06-1.56L24.82,4.98l-6.97,0.09L5.17,33.39C7.5,30.91,10.55,27.91,14.05,25.06z"/>
	</g>
</g>
<g id="Layer_2">
</g>
</svg>
